<svg width="204" height="22" viewBox="0 0 204 22" fill="none" xmlns="http://www.w3.org/2000/svg">
<path d="M193.18 0.802097C195.035 0.802097 196.577 1.03043 197.807 1.48708C199.037 1.93442 199.96 2.60543 200.575 3.5001C201.199 4.39478 201.512 5.50846 201.512 6.84116C201.512 7.6706 201.372 8.42548 201.092 9.1058C200.813 9.78613 200.412 10.3966 199.89 10.9371C199.378 11.4683 198.762 11.9343 198.045 12.335L204 21.2398H197.737L193.404 13.8029H192.006V21.2398H186.484V0.802097H193.18ZM193.096 4.98191H192.006V9.651H193.04C193.888 9.651 194.583 9.46461 195.123 9.09183C195.664 8.71904 195.934 8.0527 195.934 7.09278C195.934 6.4311 195.71 5.91386 195.263 5.54108C194.816 5.1683 194.093 4.98191 193.096 4.98191Z" fill="#355F2E"/>
<path d="M182.905 21.2398H170.771V0.802097H182.905V5.23354H176.293V8.44878H182.416V12.8802H176.293V16.7385H182.905V21.2398Z" fill="#355F2E"/>
<path d="M166.354 21.2398H159.112L151.647 6.84116H151.522C151.568 7.27918 151.61 7.80573 151.647 8.42082C151.685 9.03591 151.717 9.66498 151.745 10.308C151.773 10.9418 151.787 11.5149 151.787 12.0275V21.2398H146.895V0.802097H154.108L161.545 15.0051H161.629C161.601 14.5577 161.573 14.0405 161.545 13.4534C161.517 12.8569 161.489 12.2558 161.461 11.65C161.442 11.0443 161.433 10.5084 161.433 10.0424V0.802097H166.354V21.2398Z" fill="#355F2E"/>
<path d="M134.215 0.802097C136.07 0.802097 137.612 1.03043 138.842 1.48708C140.073 1.93442 140.995 2.60543 141.61 3.5001C142.235 4.39478 142.547 5.50846 142.547 6.84116C142.547 7.6706 142.407 8.42548 142.128 9.1058C141.848 9.78613 141.447 10.3966 140.925 10.9371C140.413 11.4683 139.798 11.9343 139.08 12.335L145.035 21.2398H138.773L134.439 13.8029H133.041V21.2398H127.519V0.802097H134.215ZM134.131 4.98191H133.041V9.651H134.076C134.924 9.651 135.618 9.46461 136.158 9.09183C136.699 8.71904 136.969 8.0527 136.969 7.09278C136.969 6.4311 136.746 5.91386 136.298 5.54108C135.851 5.1683 135.129 4.98191 134.131 4.98191Z" fill="#355F2E"/>
<path d="M123.829 10.993C123.829 12.568 123.638 14.0032 123.256 15.2986C122.883 16.5847 122.296 17.6938 121.494 18.6257C120.693 19.5577 119.663 20.2753 118.405 20.7785C117.147 21.2725 115.641 21.5194 113.889 21.5194C112.175 21.5194 110.688 21.2725 109.43 20.7785C108.181 20.2753 107.151 19.5623 106.341 18.6397C105.53 17.7077 104.929 16.5941 104.537 15.2986C104.146 14.0032 103.95 12.5587 103.95 10.9651C103.95 8.8402 104.3 6.99493 104.999 5.42925C105.707 3.85424 106.797 2.63804 108.27 1.78065C109.742 0.91393 111.625 0.480572 113.917 0.480572C116.247 0.480572 118.139 0.91393 119.593 1.78065C121.056 2.64736 122.128 3.86822 122.808 5.44323C123.489 7.01823 123.829 8.86816 123.829 10.993ZM109.765 10.993C109.765 12.2232 109.905 13.281 110.185 14.1663C110.464 15.0517 110.907 15.732 111.513 16.2073C112.119 16.6826 112.911 16.9202 113.889 16.9202C114.905 16.9202 115.711 16.6826 116.308 16.2073C116.914 15.732 117.347 15.0517 117.608 14.1663C117.878 13.281 118.013 12.2232 118.013 10.993C118.013 9.14774 117.706 7.68923 117.091 6.61749C116.476 5.54574 115.418 5.00987 113.917 5.00987C112.92 5.00987 112.114 5.25217 111.499 5.73679C110.893 6.22141 110.45 6.91105 110.171 7.80573C109.901 8.7004 109.765 9.76283 109.765 10.993Z" fill="#355F2E"/>
<path d="M95.213 5.03783C94.5607 5.03783 93.9782 5.17762 93.4656 5.45721C92.9531 5.72747 92.515 6.12355 92.1516 6.64545C91.7881 7.16734 91.5085 7.80573 91.3128 8.56061C91.1264 9.30618 91.0332 10.1543 91.0332 11.1048C91.0332 12.3909 91.1963 13.472 91.5225 14.348C91.8487 15.2241 92.3426 15.8858 93.0043 16.3331C93.6753 16.7804 94.5141 17.0041 95.5206 17.0041C96.4339 17.0041 97.3099 16.8783 98.1487 16.6267C98.9968 16.375 99.8495 16.0722 100.707 15.718V20.3871C99.8029 20.7878 98.8756 21.0768 97.925 21.2538C96.9838 21.4309 95.9819 21.5194 94.9195 21.5194C92.7014 21.5194 90.8841 21.0814 89.4676 20.2054C88.0603 19.32 87.0212 18.0945 86.3502 16.5288C85.6885 14.9631 85.3576 13.1458 85.3576 11.0769C85.3576 9.52985 85.572 8.11328 86.0007 6.82718C86.4387 5.54108 87.0771 4.4274 87.9158 3.48613C88.7546 2.53553 89.7891 1.80395 91.0193 1.29137C92.2588 0.769481 93.6753 0.508533 95.269 0.508533C96.2568 0.508533 97.296 0.625028 98.3863 0.858016C99.4861 1.08169 100.558 1.44515 101.602 1.9484L99.9101 6.29597C99.1645 5.94182 98.4096 5.6436 97.6454 5.40129C96.8812 5.15898 96.0704 5.03783 95.213 5.03783Z" fill="#355F2E"/>
<path d="M66.9609 8.37888L70.4837 0.802097H76.4668L69.7427 13.2577V21.2398H64.179V13.4254L57.4549 0.802097H63.466L66.9609 8.37888Z" fill="#355F2E"/>
<path d="M56.728 21.2398H40.8056V17.8289L49.6545 5.2615H41.0153V0.802097H56.5043V4.19907L47.6554 16.7804H56.728V21.2398Z" fill="#355F2E"/>
<path d="M38.471 10.993C38.471 12.568 38.28 14.0032 37.8979 15.2986C37.5251 16.5847 36.938 17.6938 36.1365 18.6257C35.335 19.5577 34.3052 20.2753 33.0471 20.7785C31.7889 21.2725 30.2838 21.5194 28.5318 21.5194C26.817 21.5194 25.3305 21.2725 24.0724 20.7785C22.8235 20.2753 21.7937 19.5623 20.9829 18.6397C20.1721 17.7077 19.571 16.5941 19.1796 15.2986C18.7882 14.0032 18.5925 12.5587 18.5925 10.9651C18.5925 8.8402 18.942 6.99493 19.6409 5.42925C20.3492 3.85424 21.4396 2.63804 22.9121 1.78065C24.3846 0.91393 26.2671 0.480572 28.5597 0.480572C30.8896 0.480572 32.7815 0.91393 34.2353 1.78065C35.6985 2.64736 36.7702 3.86822 37.4506 5.44323C38.1309 7.01823 38.471 8.86816 38.471 10.993ZM24.4079 10.993C24.4079 12.2232 24.5477 13.281 24.8272 14.1663C25.1068 15.0517 25.5495 15.732 26.1553 16.2073C26.761 16.6826 27.5532 16.9202 28.5318 16.9202C29.5476 16.9202 30.3537 16.6826 30.9502 16.2073C31.556 15.732 31.9893 15.0517 32.2503 14.1663C32.5205 13.281 32.6557 12.2232 32.6557 10.993C32.6557 9.14774 32.3481 7.68923 31.733 6.61749C31.1179 5.54574 30.0602 5.00987 28.5597 5.00987C27.5625 5.00987 26.7564 5.25217 26.1413 5.73679C25.5355 6.22141 25.0929 6.91105 24.8133 7.80573C24.543 8.7004 24.4079 9.76283 24.4079 10.993Z" fill="#355F2E"/>
<path d="M9.85541 5.03783C9.20304 5.03783 8.62057 5.17762 8.108 5.45721C7.59542 5.72747 7.1574 6.12355 6.79394 6.64545C6.43048 7.16734 6.15089 7.80573 5.95518 8.56061C5.76879 9.30618 5.6756 10.1543 5.6756 11.1048C5.6756 12.3909 5.83869 13.472 6.16487 14.348C6.49106 15.2241 6.98499 15.8858 7.64668 16.3331C8.31769 16.7804 9.15644 17.0041 10.163 17.0041C11.0763 17.0041 11.9523 16.8783 12.7911 16.6267C13.6391 16.375 14.4919 16.0722 15.3493 15.718V20.3871C14.4453 20.7878 13.518 21.0768 12.5674 21.2538C11.6261 21.4309 10.6243 21.5194 9.56184 21.5194C7.34379 21.5194 5.52648 21.0814 4.10992 20.2054C2.70267 19.32 1.66354 18.0945 0.992531 16.5288C0.330844 14.9631 0 13.1458 0 11.0769C0 9.52985 0.214349 8.11328 0.643048 6.82718C1.08107 5.54108 1.71945 4.4274 2.55821 3.48613C3.39697 2.53553 4.43144 1.80395 5.66162 1.29137C6.90112 0.769481 8.31769 0.508533 9.91133 0.508533C10.8992 0.508533 11.9383 0.625028 13.0287 0.858016C14.1284 1.08169 15.2002 1.44515 16.244 1.9484L14.5525 6.29597C13.8069 5.94182 13.052 5.6436 12.2878 5.40129C11.5236 5.15898 10.7128 5.03783 9.85541 5.03783Z" fill="#355F2E"/>
</svg>
